<mxfile host="app.diagrams.net" modified="2021-04-16T08:31:06.775Z" agent="5.0 (Macintosh; Intel Mac OS X 10_15_6) AppleWebKit/537.36 (KHTML, like Gecko) Chrome/89.0.4389.82 Safari/537.36" etag="MUzTsmyEr3yiydrpcpt1" version="14.5.3" type="github">
  <diagram id="IZal-CDfWJfEBjwSl7ik" name="第 1 页">
    <mxGraphModel dx="1481" dy="1079" grid="1" gridSize="10" guides="1" tooltips="1" connect="1" arrows="1" fold="1" page="1" pageScale="1" pageWidth="827" pageHeight="1169" math="0" shadow="0">
      <root>
        <mxCell id="0" />
        <mxCell id="1" parent="0" />
        <mxCell id="C_QCUCFtFb6yNc336R0_-2" value="" style="endArrow=none;dashed=1;html=1;dashPattern=1 3;strokeWidth=2;" edge="1" parent="1">
          <mxGeometry width="50" height="50" relative="1" as="geometry">
            <mxPoint x="30" y="310" as="sourcePoint" />
            <mxPoint x="770" y="310" as="targetPoint" />
          </mxGeometry>
        </mxCell>
        <mxCell id="C_QCUCFtFb6yNc336R0_-3" value="三棱科技APP" style="text;html=1;strokeColor=none;fillColor=none;align=center;verticalAlign=middle;whiteSpace=wrap;rounded=0;fontSize=16;" vertex="1" parent="1">
          <mxGeometry x="40" y="340" width="140" height="30" as="geometry" />
        </mxCell>
        <mxCell id="C_QCUCFtFb6yNc336R0_-19" style="edgeStyle=orthogonalEdgeStyle;rounded=0;orthogonalLoop=1;jettySize=auto;html=1;exitX=0.5;exitY=1;exitDx=0;exitDy=0;entryX=0.5;entryY=1;entryDx=0;entryDy=0;fontSize=16;" edge="1" parent="1" source="C_QCUCFtFb6yNc336R0_-4" target="C_QCUCFtFb6yNc336R0_-8">
          <mxGeometry relative="1" as="geometry">
            <Array as="points">
              <mxPoint x="290" y="540" />
              <mxPoint x="650" y="540" />
            </Array>
          </mxGeometry>
        </mxCell>
        <mxCell id="C_QCUCFtFb6yNc336R0_-23" value="登录成功，跳转回来并加上token" style="edgeLabel;html=1;align=center;verticalAlign=middle;resizable=0;points=[];fontSize=16;" vertex="1" connectable="0" parent="C_QCUCFtFb6yNc336R0_-19">
          <mxGeometry x="-0.028" relative="1" as="geometry">
            <mxPoint as="offset" />
          </mxGeometry>
        </mxCell>
        <mxCell id="C_QCUCFtFb6yNc336R0_-31" style="edgeStyle=orthogonalEdgeStyle;rounded=0;orthogonalLoop=1;jettySize=auto;html=1;exitX=0;exitY=0.5;exitDx=0;exitDy=0;entryX=0;entryY=0.5;entryDx=0;entryDy=0;fontSize=16;" edge="1" parent="1" source="C_QCUCFtFb6yNc336R0_-4" target="C_QCUCFtFb6yNc336R0_-30">
          <mxGeometry relative="1" as="geometry">
            <Array as="points">
              <mxPoint x="170" y="430" />
              <mxPoint x="170" y="840" />
            </Array>
          </mxGeometry>
        </mxCell>
        <mxCell id="C_QCUCFtFb6yNc336R0_-32" value="验证登录（&lt;span style=&quot;background-color: rgb(248 , 249 , 250)&quot;&gt;三棱科技目前已实现）&lt;/span&gt;" style="edgeLabel;html=1;align=center;verticalAlign=middle;resizable=0;points=[];fontSize=16;rotation=90;" vertex="1" connectable="0" parent="C_QCUCFtFb6yNc336R0_-31">
          <mxGeometry x="-0.1042" y="-1" relative="1" as="geometry">
            <mxPoint y="23" as="offset" />
          </mxGeometry>
        </mxCell>
        <mxCell id="C_QCUCFtFb6yNc336R0_-4" value="登录模块" style="ellipse;whiteSpace=wrap;html=1;fontSize=16;" vertex="1" parent="1">
          <mxGeometry x="230" y="390" width="120" height="80" as="geometry" />
        </mxCell>
        <mxCell id="C_QCUCFtFb6yNc336R0_-10" style="rounded=0;orthogonalLoop=1;jettySize=auto;html=1;exitX=1;exitY=0.3333333333333333;exitDx=0;exitDy=0;exitPerimeter=0;fontSize=16;" edge="1" parent="1" source="C_QCUCFtFb6yNc336R0_-5" target="C_QCUCFtFb6yNc336R0_-8">
          <mxGeometry relative="1" as="geometry" />
        </mxCell>
        <mxCell id="C_QCUCFtFb6yNc336R0_-13" value="访问（如用户已登录，传递token到url中）" style="edgeLabel;html=1;align=center;verticalAlign=middle;resizable=0;points=[];fontSize=16;" vertex="1" connectable="0" parent="C_QCUCFtFb6yNc336R0_-10">
          <mxGeometry x="-0.0314" relative="1" as="geometry">
            <mxPoint x="22.19" y="37.95" as="offset" />
          </mxGeometry>
        </mxCell>
        <mxCell id="C_QCUCFtFb6yNc336R0_-17" style="edgeStyle=none;rounded=0;orthogonalLoop=1;jettySize=auto;html=1;exitX=0;exitY=0.3333333333333333;exitDx=0;exitDy=0;exitPerimeter=0;entryX=0.5;entryY=0;entryDx=0;entryDy=0;fontSize=16;" edge="1" parent="1" source="C_QCUCFtFb6yNc336R0_-5" target="C_QCUCFtFb6yNc336R0_-4">
          <mxGeometry relative="1" as="geometry" />
        </mxCell>
        <mxCell id="C_QCUCFtFb6yNc336R0_-18" value="输入登录信息" style="edgeLabel;html=1;align=center;verticalAlign=middle;resizable=0;points=[];fontSize=16;" vertex="1" connectable="0" parent="C_QCUCFtFb6yNc336R0_-17">
          <mxGeometry x="-0.0701" relative="1" as="geometry">
            <mxPoint as="offset" />
          </mxGeometry>
        </mxCell>
        <mxCell id="C_QCUCFtFb6yNc336R0_-5" value="用户" style="shape=umlActor;verticalLabelPosition=bottom;verticalAlign=top;html=1;outlineConnect=0;fontSize=16;labelBackgroundColor=#66FFB3;" vertex="1" parent="1">
          <mxGeometry x="416" y="80" width="30" height="60" as="geometry" />
        </mxCell>
        <mxCell id="C_QCUCFtFb6yNc336R0_-11" style="edgeStyle=none;rounded=0;orthogonalLoop=1;jettySize=auto;html=1;exitX=0;exitY=0.5;exitDx=0;exitDy=0;fontSize=16;" edge="1" parent="1" source="C_QCUCFtFb6yNc336R0_-8" target="C_QCUCFtFb6yNc336R0_-4">
          <mxGeometry relative="1" as="geometry" />
        </mxCell>
        <mxCell id="C_QCUCFtFb6yNc336R0_-12" value="激活登录（无token）" style="edgeLabel;html=1;align=center;verticalAlign=middle;resizable=0;points=[];fontSize=16;" vertex="1" connectable="0" parent="C_QCUCFtFb6yNc336R0_-11">
          <mxGeometry x="0.025" y="-1" relative="1" as="geometry">
            <mxPoint as="offset" />
          </mxGeometry>
        </mxCell>
        <mxCell id="C_QCUCFtFb6yNc336R0_-28" style="edgeStyle=orthogonalEdgeStyle;rounded=0;orthogonalLoop=1;jettySize=auto;html=1;exitX=1;exitY=0.5;exitDx=0;exitDy=0;entryX=1;entryY=0.5;entryDx=0;entryDy=0;fontSize=16;" edge="1" parent="1" source="C_QCUCFtFb6yNc336R0_-8" target="C_QCUCFtFb6yNc336R0_-27">
          <mxGeometry relative="1" as="geometry">
            <Array as="points">
              <mxPoint x="790" y="430" />
              <mxPoint x="790" y="840" />
            </Array>
          </mxGeometry>
        </mxCell>
        <mxCell id="C_QCUCFtFb6yNc336R0_-29" value="通过token查询用户的详细信息" style="edgeLabel;html=1;align=center;verticalAlign=middle;resizable=0;points=[];fontSize=16;rotation=90;" vertex="1" connectable="0" parent="C_QCUCFtFb6yNc336R0_-28">
          <mxGeometry x="0.0766" y="1" relative="1" as="geometry">
            <mxPoint y="-25" as="offset" />
          </mxGeometry>
        </mxCell>
        <mxCell id="C_QCUCFtFb6yNc336R0_-8" value="分销商城" style="ellipse;whiteSpace=wrap;html=1;fontSize=16;" vertex="1" parent="1">
          <mxGeometry x="590" y="390" width="120" height="80" as="geometry" />
        </mxCell>
        <mxCell id="C_QCUCFtFb6yNc336R0_-9" value="" style="endArrow=none;dashed=1;html=1;dashPattern=1 3;strokeWidth=2;" edge="1" parent="1">
          <mxGeometry width="50" height="50" relative="1" as="geometry">
            <mxPoint x="24" y="600" as="sourcePoint" />
            <mxPoint x="764" y="600" as="targetPoint" />
          </mxGeometry>
        </mxCell>
        <mxCell id="C_QCUCFtFb6yNc336R0_-15" value="&lt;h1&gt;登录流程&lt;/h1&gt;&lt;p&gt;APP内提供登录模块，分销商城进行对接&lt;/p&gt;" style="text;html=1;strokeColor=none;fillColor=none;spacing=5;spacingTop=-20;whiteSpace=wrap;overflow=hidden;rounded=0;fontSize=16;" vertex="1" parent="1">
          <mxGeometry x="10" y="20" width="260" height="150" as="geometry" />
        </mxCell>
        <mxCell id="C_QCUCFtFb6yNc336R0_-24" value="" style="endArrow=none;dashed=1;html=1;dashPattern=1 3;strokeWidth=2;" edge="1" parent="1">
          <mxGeometry width="50" height="50" relative="1" as="geometry">
            <mxPoint x="30" y="720" as="sourcePoint" />
            <mxPoint x="770" y="720" as="targetPoint" />
          </mxGeometry>
        </mxCell>
        <mxCell id="C_QCUCFtFb6yNc336R0_-25" value="" style="endArrow=none;dashed=1;html=1;dashPattern=1 3;strokeWidth=2;" edge="1" parent="1">
          <mxGeometry width="50" height="50" relative="1" as="geometry">
            <mxPoint x="30" y="960" as="sourcePoint" />
            <mxPoint x="770" y="960" as="targetPoint" />
          </mxGeometry>
        </mxCell>
        <mxCell id="C_QCUCFtFb6yNc336R0_-26" value="三棱科技API" style="text;html=1;strokeColor=none;fillColor=none;align=center;verticalAlign=middle;whiteSpace=wrap;rounded=0;fontSize=16;" vertex="1" parent="1">
          <mxGeometry x="46" y="750" width="130" height="30" as="geometry" />
        </mxCell>
        <mxCell id="C_QCUCFtFb6yNc336R0_-27" value="用户API" style="ellipse;whiteSpace=wrap;html=1;fontSize=16;" vertex="1" parent="1">
          <mxGeometry x="556" y="800" width="120" height="80" as="geometry" />
        </mxCell>
        <mxCell id="C_QCUCFtFb6yNc336R0_-30" value="登录API" style="ellipse;whiteSpace=wrap;html=1;fontSize=16;" vertex="1" parent="1">
          <mxGeometry x="296" y="800" width="120" height="80" as="geometry" />
        </mxCell>
      </root>
    </mxGraphModel>
  </diagram>
</mxfile>
